HIERARCHY
ROOT Hips
{
	OFFSET 0.000000 0.000000 0.000000
	CHANNELS 6 Xposition Yposition Zposition Xrotation Yrotation Zrotation
	JOINT LeftUpLeg_virtual
	{
		OFFSET 0.000000 0.000000 0.000000
		CHANNELS 3 Xrotation Yrotation Zrotation
		JOINT LeftUpLeg
		{
			OFFSET 15.427100 -6.655098 0.678600
			CHANNELS 3 Xrotation Yrotation Zrotation
			JOINT LeftLeg
			{
				OFFSET 4.081073 -39.591068 13.024000
				CHANNELS 3 Xrotation Yrotation Zrotation
				JOINT LeftFoot
				{
					OFFSET -4.081074 -37.707932 -15.979700
					CHANNELS 3 Xrotation Yrotation Zrotation
					JOINT LeftToeBase
					{
						OFFSET 5.346399 -15.068900 20.645000
						CHANNELS 3 Xrotation Yrotation Zrotation
						JOINT LeftToe_End
						{
							OFFSET 2.754700 0.931300 11.300900
							CHANNELS 3 Xrotation Yrotation Zrotation
							End Site
							{
								OFFSET 0 0 0
							}
						}
					}
				}
			}
		}
	}
	JOINT RightUpLeg_virtual
	{
		OFFSET 0.000000 0.000000 0.000000
		CHANNELS 3 Xrotation Yrotation Zrotation
		JOINT RightUpLeg
		{
			OFFSET -15.569500 -6.655098 0.678600
			CHANNELS 3 Xrotation Yrotation Zrotation
			JOINT RightLeg
			{
				OFFSET -4.081825 -39.591045 13.023800
				CHANNELS 3 Xrotation Yrotation Zrotation
				JOINT RightFoot
				{
					OFFSET 4.081824 -37.707954 -15.979600
					CHANNELS 3 Xrotation Yrotation Zrotation
					JOINT RightToeBase
					{
						OFFSET -5.346400 -15.068900 20.645000
						CHANNELS 3 Xrotation Yrotation Zrotation
						JOINT RightToe_End
						{
							OFFSET -2.754700 0.931300 11.300900
							CHANNELS 3 Xrotation Yrotation Zrotation
							End Site
							{
								OFFSET 0 0 0
							}
						}
					}
				}
			}
		}
	}
	JOINT Spine_virtual
	{
		OFFSET 0.000000 0.000000 0.000000
		CHANNELS 3 Xrotation Yrotation Zrotation
		JOINT Spine
		{
			OFFSET -0.279200 12.230698 -2.892100
			CHANNELS 3 Xrotation Yrotation Zrotation
			JOINT Spine1
			{
				OFFSET -0.232667 10.192268 -1.242267
				CHANNELS 3 Xrotation Yrotation Zrotation
				JOINT Spine1_split
				{
					OFFSET -0.232667 10.192268 -1.242267
					CHANNELS 3 Xrotation Yrotation Zrotation
					JOINT Spine2
					{
						OFFSET -0.232667 10.192268 -1.242267
						CHANNELS 3 Xrotation Yrotation Zrotation
						JOINT Neck_virtual
						{
							OFFSET 0.000000 0.000000 0.000000
							CHANNELS 3 Xrotation Yrotation Zrotation
							JOINT Neck
							{
								OFFSET -0.418800 17.814194 8.416900
								CHANNELS 3 Xrotation Yrotation Zrotation
								JOINT Head
								{
									OFFSET 0.000000 7.031097 3.806800
									CHANNELS 3 Xrotation Yrotation Zrotation
									JOINT HeadTop_End
									{
										OFFSET 0.000000 24.646606 12.978600
										CHANNELS 3 Xrotation Yrotation Zrotation
										End Site
										{
											OFFSET 0 0 0
										}
									}
								}
							}
						}
						JOINT LeftShoulder_virtual
						{
							OFFSET 0.000000 0.000000 0.000000
							CHANNELS 3 Xrotation Yrotation Zrotation
							JOINT LeftShoulder
							{
								OFFSET 8.476499 7.247704 -3.868750
								CHANNELS 3 Xrotation Yrotation Zrotation
								JOINT LeftShoulder_split
								{
									OFFSET 8.476499 7.247704 -3.868750
									CHANNELS 3 Xrotation Yrotation Zrotation
									JOINT LeftArm
									{
										OFFSET 9.308998 -2.777710 0.208600
										CHANNELS 3 Xrotation Yrotation Zrotation
										JOINT LeftForeArm
										{
											OFFSET 29.972298 0.000000 0.000000
											CHANNELS 3 Xrotation Yrotation Zrotation
											JOINT LeftHand
											{
												OFFSET 26.026505 0.000000 0.000000
												CHANNELS 3 Xrotation Yrotation Zrotation
												End Site
												{
													OFFSET 0 0 0
												}
											}
										}
									}
								}
							}
						}
						JOINT RightShoulder_virtual
						{
							OFFSET 0.000000 0.000000 0.000000
							CHANNELS 3 Xrotation Yrotation Zrotation
							JOINT RightShoulder
							{
								OFFSET -7.570500 7.247704 -3.868750
								CHANNELS 3 Xrotation Yrotation Zrotation
								JOINT RightShoulder_split
								{
									OFFSET -7.570500 7.247704 -3.868750
									CHANNELS 3 Xrotation Yrotation Zrotation
									JOINT RightArm
									{
										OFFSET -9.308998 -2.777710 0.208500
										CHANNELS 3 Xrotation Yrotation Zrotation
										JOINT RightForeArm
										{
											OFFSET -29.972300 0.000000 0.000000
											CHANNELS 3 Xrotation Yrotation Zrotation
											JOINT RightHand
											{
												OFFSET -26.026505 0.000000 0.000000
												CHANNELS 3 Xrotation Yrotation Zrotation
												End Site
												{
													OFFSET 0 0 0
												}
											}
										}
									}
								}
							}
						}
					}
				}
			}
		}
	}
}
MOTION
Frames: 4
Frame Time: 0.03333333
-106.687622 71.513519 -7.912792 0.000000 0.000000 0.000000 9.947629 -56.545948 9.109778 -53.624553 -25.245583 17.960044 36.191516 -6.804959 -8.934838 11.555055 2.667108 -24.382283 -0.419963 -0.865900 0.536466 0.000000 0.000000 0.000000 9.947629 -56.545948 9.109778 -42.295052 -6.118247 -10.995324 84.575009 14.045867 -7.310452 -13.257600 1.200898 17.813781 -28.411610 5.975306 -17.057750 0.000000 0.000000 0.000000 9.947629 -56.545948 9.109778 16.208867 1.373675 -6.363142 16.153199 3.266246 -4.904297 0.000000 0.000000 0.000000 0.000000 0.000000 0.000000 16.359584 3.396169 -4.897939 -12.302130 19.798456 8.636932 -16.047610 18.667493 1.162286 0.000000 0.000000 0.000000 16.359584 3.396169 -4.897939 -0.251944 -11.978117 11.226397 0.000000 0.000000 0.000000 -32.527451 23.987262 -23.362759 0.111006 -71.701413 0.076539 0.000000 0.000000 0.000000 16.359584 3.396169 -4.897939 -2.351130 13.582154 15.143393 0.000000 0.000000 0.000000 -42.761700 -0.390811 39.002842 -28.941680 65.237172 26.703989 0.000000 0.000000 0.000000 
-110.501556 71.031700 -7.347702 0.000000 0.000000 0.000000 7.033589 -57.833800 6.177428 -49.197330 -26.029947 21.343856 39.356926 -9.053751 -10.477231 6.333990 4.790748 -24.467896 -0.409616 -0.854985 0.559917 0.000000 0.000000 0.000000 7.033589 -57.833800 6.177428 -44.721090 -0.808667 -15.216497 83.426840 10.834061 -5.938675 -16.701836 -2.883008 15.116785 -8.772863 1.277761 -5.161583 0.000000 0.000000 0.000000 7.033589 -57.833800 6.177428 16.077242 1.039395 -6.317587 15.838075 2.517905 -5.515921 0.000000 0.000000 0.000000 0.000000 0.000000 0.000000 16.044546 2.647852 -5.497722 -14.160948 22.365844 7.393226 -16.154714 20.517186 1.968571 0.000000 0.000000 0.000000 16.044546 2.647852 -5.497722 -0.290360 -12.872994 9.107122 0.000000 0.000000 0.000000 -36.915994 24.362979 -23.013860 0.129570 -72.609842 0.094696 0.000000 0.000000 0.000000 16.044546 2.647852 -5.497722 -2.102495 13.376436 14.216293 0.000000 0.000000 0.000000 -38.965533 0.018492 39.003307 -29.483509 67.286188 27.585090 0.000000 0.000000 0.000000 
-113.703903 71.252205 -6.561207 0.000000 0.000000 0.000000 4.071752 -58.619272 3.259716 -44.401349 -25.630416 24.712565 41.402281 -7.767055 -11.190748 2.055962 2.422979 -24.407225 -0.404251 -0.828663 0.573217 0.000000 0.000000 0.000000 4.071752 -58.619272 3.259716 -44.387723 1.818681 -18.072189 78.334907 7.808816 -5.520219 -21.956220 -7.227407 11.711327 14.738380 4.749782 4.728169 0.000000 0.000000 0.000000 4.071752 -58.619272 3.259716 15.925696 0.804907 -5.974597 15.476317 1.900082 -5.988024 0.000000 0.000000 0.000000 0.000000 0.000000 0.000000 15.663097 2.020914 -5.953945 -15.640626 24.355949 6.043406 -15.299794 22.041526 1.948351 0.000000 0.000000 0.000000 15.663097 2.020914 -5.953945 -1.370432 -14.343349 3.032931 0.000000 0.000000 0.000000 -38.279628 22.614273 -23.089907 0.142064 -75.187843 0.107945 0.000000 0.000000 0.000000 15.663097 2.020914 -5.953945 -2.145712 13.116404 13.287858 0.000000 0.000000 0.000000 -38.908514 -2.796936 41.271138 -29.448507 71.167313 28.159109 0.000000 0.000000 0.000000 
-116.460297 71.884155 -5.686481 0.000000 0.000000 0.000000 1.289560 -59.003436 0.564905 -40.435027 -23.956320 26.481945 41.894003 -9.349136 -11.638855 -1.134473 2.843670 -23.349997 -0.400149 -0.770554 0.588767 0.000000 0.000000 0.000000 1.289560 -59.003436 0.564905 -42.612809 2.556851 -20.490400 69.040030 5.284532 -5.793781 -20.469812 -8.542730 14.857634 15.199008 4.665218 7.915633 0.000000 0.000000 0.000000 1.289560 -59.003436 0.564905 15.756271 0.644200 -5.412441 15.077530 1.383987 -6.329464 0.000000 0.000000 0.000000 0.000000 0.000000 0.000000 15.230647 1.483818 -6.284075 -17.484615 25.776255 4.725521 -13.493817 23.182097 1.276608 0.000000 0.000000 0.000000 15.230647 1.483818 -6.284075 -2.761760 -14.973165 -2.599929 0.000000 0.000000 0.000000 -36.570646 20.101445 -24.497416 0.136188 -75.533546 0.102030 0.000000 0.000000 0.000000 15.230647 1.483818 -6.284075 -2.248344 12.848359 12.353129 0.000000 0.000000 0.000000 -38.156264 -4.801575 41.733231 -31.405818 74.337361 30.490596 0.000000 0.000000 0.000000 
